<svg width="25" height="26" viewBox="0 0 25 26" fill="none" xmlns="http://www.w3.org/2000/svg">
<path d="M12.5 0.47583C5.60708 0.47583 0 6.08189 0 12.9724C0 19.8628 5.60708 25.4689 12.5 25.4689C19.3929 25.4689 25 19.8628 25 12.9724C25 6.08189 19.3929 0.47583 12.5 0.47583ZM12.5 24.4275C6.18184 24.4275 1.04165 19.2888 1.04165 12.9724C1.04165 6.65595 6.18184 1.51719 12.5 1.51719C18.8182 1.51719 23.9583 6.65595 23.9583 12.9724C23.9583 19.2888 18.8182 24.4275 12.5 24.4275Z" fill="#FEFEFE"/>
<path d="M17.4693 12.5345L10.1776 7.84825C10.0179 7.74403 9.81143 7.73841 9.64663 7.82891C9.47876 7.92044 9.375 8.0954 9.375 8.28607V17.6586C9.375 17.8493 9.47876 18.0242 9.64663 18.1158C9.72393 18.158 9.8104 18.1793 9.89585 18.1793C9.99351 18.1793 10.0922 18.1518 10.1776 18.0964L17.4693 13.4102C17.6178 13.3146 17.7084 13.1493 17.7084 12.9723C17.7084 12.7954 17.6178 12.6301 17.4693 12.5345ZM10.4167 16.7047V9.24002L16.2242 12.9723L10.4167 16.7047Z" fill="#FEFEFE"/>
</svg>
