<svg width="36" height="37" viewBox="0 0 36 37" fill="none" xmlns="http://www.w3.org/2000/svg">
<path d="M20.813 11.496C20.4249 11.496 20.1101 11.811 20.1101 12.1991C20.1101 12.5869 20.4249 12.9019 20.813 12.9019C21.2011 12.9019 21.5158 12.5869 21.5158 12.1991C21.5158 11.811 21.2011 11.496 20.813 11.496Z" fill="#332208"/>
<path d="M16.5488 25.2251C16.8231 24.9502 16.8231 24.5052 16.5488 24.2303C16.2741 23.9562 15.8291 23.9562 15.5542 24.2303C15.2801 24.5052 15.2801 24.9502 15.5542 25.2251C15.8291 25.4992 16.2741 25.4992 16.5488 25.2251Z" fill="#332208"/>
<path d="M8.09911 36.5966C8.37165 36.8712 8.81537 36.8742 9.09148 36.6024L12.5005 33.2459C13.0797 32.6671 13.2558 31.8101 13.0011 31.0652L13.7344 30.3584C14.1292 29.9773 14.649 29.7672 15.1985 29.7672H24.5461C26.2045 29.7672 27.7719 29.1307 28.9601 27.975C29.009 27.9275 28.589 28.422 35.3372 20.3614C36.3381 19.178 36.1884 17.4009 35.0031 16.3995C33.8253 15.4074 32.0609 15.5499 31.0573 16.713L26.9081 20.9751C26.3841 20.3307 25.5852 19.9289 24.7219 19.9289H16.881C15.7653 19.4624 14.5814 19.2263 13.3599 19.2263C9.97506 19.2263 7.01799 20.7881 5.4308 23.7195C4.76234 23.593 4.05735 23.7951 3.55017 24.3019L0.205166 27.6549C-0.06793 27.9286 -0.0684794 28.3715 0.204067 28.6458L8.09911 36.5966ZM13.3596 20.6316C14.4366 20.6316 15.4779 20.8482 16.4552 21.2755C16.5442 21.3145 16.6401 21.3345 16.7371 21.3345H24.7219C25.4844 21.3345 26.1284 21.9559 26.1284 22.7398C26.1284 23.515 25.4975 24.1454 24.7219 24.1454H18.985C18.5968 24.1454 18.2819 24.4601 18.2819 24.8481C18.2819 25.2363 18.5968 25.5507 18.985 25.5507H24.7219C26.2729 25.5507 27.5345 24.2899 27.5345 22.7398C27.5345 22.6163 27.5257 22.4938 27.5098 22.3724C31.5235 18.249 32.0895 17.6697 32.1137 17.6408C32.6148 17.0497 33.5044 16.9747 34.0962 17.4733C34.6886 17.9739 34.7636 18.8625 34.2611 19.4569L27.9543 26.992C27.0334 27.8756 25.8242 28.3619 24.5461 28.3619H15.1985C14.2825 28.3619 13.4154 28.712 12.7577 29.3471L12.1601 29.9235L6.65148 24.4184C7.93893 22.0045 10.3548 20.6316 13.3596 20.6316ZM4.5453 25.2951C4.77718 25.0634 5.13325 25.0216 5.41596 25.1963C5.52338 25.2616 11.5375 31.287 11.5746 31.3367C11.7804 31.6138 11.751 32.0073 11.5101 32.2484L8.60381 35.1098L1.69483 28.1521L4.5453 25.2951Z" fill="#332208"/>
<path d="M10.9691 15.7125H27.8447C29.008 15.7125 29.9542 14.7668 29.9542 13.6042C29.9542 11.8329 29.9542 4.19648 29.9542 2.9227C29.9542 1.76011 29.008 0.814453 27.8447 0.814453H10.9691C9.80584 0.814453 8.85962 1.76011 8.85962 2.9227V13.6042C8.85962 14.7668 9.80584 15.7125 10.9691 15.7125ZM28.5478 6.43625H10.266V5.03094H28.5478V6.43625ZM27.8447 14.3072H10.9691C10.5814 14.3072 10.266 13.9917 10.266 13.6042V7.84184H28.5478V13.6042C28.5478 13.9917 28.2324 14.3072 27.8447 14.3072ZM10.9691 2.22004H27.8447C28.2324 2.22004 28.5478 2.53526 28.5478 2.9227V3.62535H10.266V2.9227C10.266 2.53526 10.5814 2.22004 10.9691 2.22004Z" fill="#332208"/>
<path d="M26.4382 11.496H23.6257C23.2375 11.496 22.9226 11.8107 22.9226 12.1991C22.9226 12.5872 23.2375 12.9019 23.6257 12.9019H26.4382C26.8267 12.9019 27.1416 12.5872 27.1416 12.1991C27.1416 11.8107 26.8267 11.496 26.4382 11.496Z" fill="#332208"/>
</svg>
