<svg width="47" height="33" viewBox="0 0 47 33" fill="none" xmlns="http://www.w3.org/2000/svg">
<path d="M27.7127 7.16184C27.7146 6.3805 27.4881 5.61615 27.0617 4.96554C26.6353 4.31494 26.0283 3.80733 25.3176 3.50698C24.6068 3.20663 23.8241 3.12705 23.0688 3.2783C22.3134 3.42955 21.6192 3.80484 21.0741 4.35666C20.529 4.90848 20.1575 5.61201 20.0066 6.3782C19.8557 7.14439 19.9322 7.93878 20.2265 8.66082C20.5207 9.38285 21.0194 10.0001 21.6595 10.4343C22.2996 10.8686 23.0523 11.1003 23.8222 11.1003C24.8524 11.1004 25.8406 10.6857 26.5699 9.94741C27.2993 9.20906 27.7103 8.20728 27.7127 7.16184ZM23.8222 9.93698C23.2818 9.93507 22.754 9.77069 22.3056 9.4646C21.8571 9.15852 21.5081 8.72445 21.3026 8.21722C21.0971 7.70999 21.0443 7.15233 21.1509 6.61466C21.2575 6.077 21.5186 5.58344 21.9014 5.19631C22.2843 4.80918 22.7715 4.54583 23.3017 4.43953C23.8319 4.33323 24.3812 4.38873 24.8804 4.59903C25.3795 4.80934 25.806 5.16501 26.1061 5.62114C26.4062 6.07727 26.5663 6.6134 26.5664 7.16184C26.5643 7.89886 26.2742 8.60494 25.7597 9.1252C25.2453 9.64545 24.5485 9.9374 23.8222 9.93698Z" fill="#332208"/>
<path d="M11.1733 16.9168C10.6423 16.9181 10.1235 17.079 9.68252 17.3794C9.24156 17.6797 8.89821 18.1059 8.69585 18.6042C8.49348 19.1024 8.44119 19.6504 8.54556 20.1788C8.64994 20.7072 8.90631 21.1924 9.28227 21.573C9.65824 21.9536 10.1369 22.2126 10.6579 22.3173C11.1789 22.422 11.7187 22.3676 12.2092 22.161C12.6997 21.9545 13.1189 21.6051 13.4138 21.1569C13.7087 20.7087 13.8661 20.1818 13.8661 19.6429C13.8644 18.9193 13.58 18.2259 13.0752 17.7148C12.5704 17.2037 11.8864 16.9168 11.1733 16.9168ZM11.1733 21.2058C10.869 21.2045 10.5718 21.1118 10.3194 20.9393C10.067 20.7668 9.87055 20.5223 9.75494 20.2366C9.63934 19.9509 9.60974 19.6369 9.66988 19.3341C9.73001 19.0314 9.87719 18.7535 10.0928 18.5355C10.3085 18.3176 10.5829 18.1694 10.8815 18.1096C11.1801 18.0498 11.4894 18.0811 11.7705 18.1996C12.0515 18.3181 12.2917 18.5184 12.4606 18.7753C12.6296 19.0322 12.7197 19.3341 12.7197 19.6429C12.7185 20.0582 12.555 20.456 12.2651 20.7491C11.9752 21.0422 11.5825 21.2066 11.1733 21.2062V21.2058Z" fill="#332208"/>
<path d="M28.1848 21.9851C27.7297 21.9861 27.2851 22.124 26.9071 22.3814C26.5292 22.6387 26.2349 23.004 26.0615 23.431C25.888 23.858 25.8431 24.3276 25.9326 24.7804C26.022 25.2333 26.2417 25.6491 26.5638 25.9753C26.886 26.3015 27.2962 26.5235 27.7427 26.6132C28.1891 26.7029 28.6518 26.6564 29.0722 26.4794C29.4925 26.3024 29.8518 26.0029 30.1045 25.6188C30.3573 25.2348 30.4922 24.7833 30.4922 24.3214C30.4908 23.7013 30.2471 23.1071 29.8145 22.6691C29.382 22.2311 28.7958 21.9851 28.1848 21.9851ZM28.1848 25.4944C27.9564 25.4934 27.7334 25.4237 27.544 25.2942C27.3546 25.1647 27.2073 24.9811 27.1206 24.7667C27.0339 24.5523 27.0117 24.3166 27.0569 24.0894C27.1021 23.8622 27.2126 23.6537 27.3744 23.4901C27.5363 23.3266 27.7422 23.2154 27.9663 23.1706C28.1904 23.1257 28.4226 23.1493 28.6335 23.2382C28.8444 23.3271 29.0246 23.4775 29.1514 23.6703C29.2782 23.8631 29.3458 24.0896 29.3458 24.3214C29.3448 24.6331 29.2219 24.9316 29.0043 25.1515C28.7866 25.3714 28.4919 25.4947 28.1848 25.4943V25.4944Z" fill="#332208"/>
<path d="M40.4419 14.0294C40.897 14.0284 41.3417 13.8905 41.7196 13.6331C42.0975 13.3758 42.3918 13.0106 42.5652 12.5836C42.7387 12.1566 42.7836 11.687 42.6941 11.2341C42.6047 10.7813 42.3851 10.3655 42.0629 10.0393C41.7407 9.71304 41.3305 9.49105 40.884 9.40132C40.4376 9.3116 39.9749 9.35817 39.5545 9.53515C39.1342 9.71213 38.7749 10.0116 38.5222 10.3957C38.2694 10.7798 38.1345 11.2313 38.1345 11.6931C38.1359 12.3132 38.3796 12.9075 38.8122 13.3454C39.2447 13.7834 39.8309 14.0294 40.4419 14.0294ZM40.4419 10.5201C40.6703 10.5211 40.8933 10.5908 41.0827 10.7203C41.2721 10.8499 41.4195 11.0334 41.5062 11.2478C41.5928 11.4623 41.615 11.698 41.5698 11.9251C41.5246 12.1523 41.4141 12.3609 41.2523 12.5244C41.0904 12.6879 40.8845 12.7991 40.6604 12.8439C40.4363 12.8888 40.2042 12.8652 39.9932 12.7763C39.7823 12.6874 39.6021 12.537 39.4753 12.3442C39.3485 12.1515 39.2809 11.9249 39.2809 11.6931C39.2819 11.3814 39.4047 11.0829 39.6224 10.863C39.8401 10.6431 40.1348 10.5198 40.4419 10.5201Z" fill="#332208"/>
<path d="M42.1129 16.2816L43.6246 14.2369C44.2069 13.4654 44.4965 12.5072 44.4406 11.5371C44.3045 9.42024 42.596 7.76186 40.5509 7.76186C38.5058 7.76186 36.7976 9.42024 36.6612 11.5366C36.6316 12.0171 36.6905 12.499 36.8349 12.9576L27.381 13.1336L28.8401 11.1592C29.7713 9.92677 30.2348 8.39568 30.1461 6.84527C30.0457 5.25933 29.3814 3.76429 28.2765 2.63801C27.7073 2.0599 27.0314 1.60129 26.2874 1.2884C25.5434 0.975503 24.746 0.814453 23.9406 0.814453C23.1353 0.814453 22.3378 0.975503 21.5939 1.2884C20.8499 1.60129 20.174 2.0599 19.6047 2.63801C18.5001 3.76402 17.8357 5.25869 17.7352 6.84431C17.6378 8.32276 18.1 9.85279 19.0407 11.1582L20.3029 12.8652L6.86847 12.9551C6.74957 12.9559 6.63385 12.9942 6.53735 13.0647C6.44085 13.1352 6.36835 13.2344 6.32988 13.3486L0.0308205 32.0357C0.00132091 32.1233 -0.00716555 32.2167 0.00606599 32.3083C0.0192975 32.3998 0.0538652 32.4869 0.106898 32.5622C0.15993 32.6374 0.229897 32.6988 0.310986 32.7411C0.392076 32.7835 0.481948 32.8055 0.573137 32.8055H46.4269C46.5168 32.8055 46.6054 32.7841 46.6857 32.7429C46.7659 32.7017 46.8354 32.6419 46.8887 32.5683C46.9419 32.4948 46.9774 32.4096 46.9922 32.3196C47.007 32.2296 47.0007 32.1374 46.9739 32.0503L42.1129 16.2816ZM37.8046 11.6129C37.8895 10.2917 38.9397 8.92516 40.5504 8.92516C42.1611 8.92516 43.2113 10.292 43.2963 11.6144C43.3339 12.3065 43.125 12.9893 42.7077 13.5381L40.5504 16.4561L38.3973 13.5439C37.9831 12.9905 37.7735 12.3071 37.805 11.6129H37.8046ZM37.3899 14.1104C37.4185 14.1526 37.4472 14.1947 37.4768 14.2364L40.0925 17.7748C40.1459 17.847 40.2151 17.9056 40.2947 17.946C40.3743 17.9864 40.462 18.0074 40.551 18.0074C40.64 18.0074 40.7277 17.9864 40.8073 17.946C40.8869 17.9056 40.9562 17.847 41.0095 17.7748L41.2655 17.4287L41.9171 19.5427L33.03 19.5447L32.3861 14.2041L37.3899 14.1104ZM19.9623 10.4662C19.1845 9.38699 18.7999 8.1283 18.8795 6.92137C18.9618 5.61662 19.5081 4.38655 20.4168 3.45978C20.8796 2.99005 21.429 2.61743 22.0337 2.3632C22.6384 2.10898 23.2865 1.97813 23.941 1.97813C24.5955 1.97813 25.2437 2.10898 25.8484 2.3632C26.453 2.61743 27.0025 2.99005 27.4652 3.45978C28.3745 4.38695 28.921 5.61763 29.0032 6.92302C29.0733 8.1954 28.6902 9.45093 27.9239 10.4605L23.9411 15.8477L19.9623 10.4662ZM1.375 31.6422L4.35263 22.8084L7.74275 22.798L10.848 26.9981C10.9014 27.0703 10.9706 27.1289 11.0502 27.1693C11.1298 27.2097 11.2176 27.2307 11.3065 27.2307C11.3955 27.2307 11.4833 27.2097 11.5629 27.1693C11.6425 27.1289 11.7117 27.0703 11.7651 26.9981L14.2393 23.6511L14.2697 31.6422H1.375ZM14.045 21.9758L11.3064 25.6798L8.57213 21.9815C8.03459 21.2351 7.76854 20.3676 7.82338 19.5368C7.93094 17.8626 9.26328 16.1309 11.3064 16.1309C13.3496 16.1309 14.6819 17.8626 14.7897 19.5384C14.8376 20.4152 14.5733 21.2803 14.045 21.9758ZM23.0786 25.5446C23.0245 25.5988 22.9815 25.6633 22.9522 25.7344C22.9229 25.8056 22.9078 25.8819 22.9078 25.959L22.9109 31.6422H15.4161L15.3801 22.0073C15.7959 21.2279 15.9878 20.3457 15.9341 19.4611C15.7722 16.9414 13.7398 14.9676 11.3071 14.9676C8.87448 14.9676 6.84211 16.9414 6.68019 19.4601C6.63663 20.2064 6.76896 20.9526 7.06622 21.6367L4.74583 21.6439L7.28335 14.1157L21.1597 14.0233L23.4832 17.166C23.5366 17.2382 23.6058 17.2968 23.6854 17.3372C23.765 17.3776 23.8527 17.3986 23.9417 17.3986C24.0307 17.3986 24.1185 17.3776 24.1981 17.3372C24.2776 17.2968 24.3469 17.2382 24.4003 17.166L26.5092 14.3129L31.2339 14.2249L31.9538 20.1966C31.9708 20.3375 32.0381 20.4673 32.1429 20.5615C32.2477 20.6556 32.3828 20.7075 32.5228 20.7075L42.2757 20.7053L43.7139 25.3708L32.0704 25.3909C32.1722 24.9911 32.2105 24.5774 32.1837 24.1653C32.0476 22.0483 30.339 20.39 28.2939 20.39C26.2488 20.39 24.5402 22.0483 24.4042 24.1644C24.3783 24.5777 24.4184 24.9926 24.523 25.3929L23.4896 25.3773C23.4135 25.3752 23.3377 25.389 23.267 25.4178C23.1963 25.4465 23.1322 25.4897 23.0786 25.5446ZM30.451 26.1663L28.2938 29.0842L26.1408 26.1722C25.7264 25.6189 25.5166 24.9355 25.5479 24.2412C25.6329 22.92 26.6832 21.5535 28.2938 21.5535C29.9044 21.5535 30.9548 22.9204 31.0398 24.2429C31.0772 24.935 30.8682 25.6176 30.451 26.1664V26.1663ZM24.0572 31.6422L24.0545 26.5492L25.0205 26.5638C25.0826 26.6658 25.149 26.766 25.2196 26.8643L27.8353 30.4027C27.8887 30.4749 27.9579 30.5335 28.0375 30.5739C28.1171 30.6143 28.2048 30.6353 28.2938 30.6353C28.3828 30.6353 28.4706 30.6143 28.5502 30.5739C28.6297 30.5335 28.699 30.4749 28.7524 30.4027L31.3676 26.8654C31.4424 26.7645 31.5122 26.6611 31.5771 26.5551L44.0723 26.5336L45.647 31.6422H24.0572Z" fill="#332208"/>
</svg>
