<svg width="60" height="25" viewBox="0 0 60 25" fill="none" xmlns="http://www.w3.org/2000/svg">
<path d="M25 9.80914H28.9995V11.8093H25V9.80914Z" fill="#332208"/>
<path d="M59.1418 6.8205L52.349 5.85081C51.1104 5.09019 49.825 4.40929 48.4997 3.81178C44.1231 1.8301 39.373 0.807538 34.5679 0.812826H33.3878C27.7173 0.816893 22.1374 2.23929 17.157 4.95027L13.7288 6.81968C9.71598 6.86483 5.78043 7.93173 2.29411 9.91829C0.877278 10.7306 0.00244141 12.2376 0 13.8698V19.8055C0 20.3579 0.447591 20.8053 1.00016 20.8053H4.35791C5.45003 23.9198 8.86108 25.5598 11.9767 24.4681C13.6918 23.8673 15.0399 22.5193 15.6409 20.8053H42.358C43.4501 23.9198 46.8612 25.5598 49.9768 24.4681C51.6915 23.8673 53.0399 22.5193 53.6409 20.8053H53.9998C54.1272 20.8053 54.2533 20.7813 54.3717 20.7341L57.6107 19.435C59.0576 18.8623 60.0053 17.4622 60 15.9072V7.81011C60 7.31307 59.6342 6.89127 59.1418 6.8205ZM13.9189 19.6058C13.4766 21.7693 11.3635 23.1649 9.19922 22.7227C7.0345 22.2806 5.63843 20.1683 6.08073 18.0044C6.52344 15.8409 8.63647 14.4454 10.8008 14.8875C12.6632 15.2678 14.0002 16.9058 13.9998 18.8061C13.9998 19.0746 13.9726 19.3426 13.9189 19.6058ZM31.9999 18.8061H15.9998C15.9998 15.4936 13.3138 12.8082 10 12.8082C6.6862 12.8082 3.99984 15.4936 3.99984 18.8061H1.99992V13.8698C2.00114 12.9543 2.49186 12.1086 3.28695 11.6539C6.55029 9.79138 10.2425 8.81112 13.9998 8.8099H31.9999V18.8061ZM31.9999 6.81073H17.922L18.1148 6.70539C22.3901 4.38285 27.1391 3.06621 31.9999 2.85592V6.81073ZM33.9998 2.81199H34.5658C38.5958 2.80752 42.5891 3.5722 46.3322 5.06538L44.5862 6.81073H33.9998V2.81199ZM51.9189 19.6058C51.4766 21.7693 49.3636 23.1649 47.1989 22.7227C45.0346 22.2806 43.6385 20.1683 44.0808 18.0044C44.5231 15.8409 46.6365 14.4454 48.8008 14.8875C50.6632 15.2678 52.0003 16.9058 51.9999 18.8061C51.9999 19.0746 51.9726 19.3426 51.9189 19.6058ZM58.0001 9.80928H55V11.8089H58.0001V15.9072C58.0025 16.6439 57.5533 17.3069 56.8681 17.5774L53.9998 18.7289C53.9998 18.6369 53.988 18.5458 53.9819 18.4539C53.9758 18.362 53.9738 18.2542 53.964 18.1541C53.9538 18.0541 53.9339 17.954 53.918 17.8544C53.9018 17.7543 53.89 17.6542 53.87 17.5635C53.8501 17.4724 53.8208 17.3715 53.7947 17.2764C53.7687 17.1816 53.7488 17.0856 53.7187 16.9925C53.6889 16.8997 53.6527 16.8106 53.619 16.7195C53.5848 16.6288 53.5539 16.5349 53.5189 16.4446C53.4839 16.3547 53.4367 16.2729 53.3948 16.1879C53.3528 16.1029 53.3118 16.0097 53.265 15.9239C53.2178 15.8381 53.1649 15.7649 53.1197 15.6852C53.0749 15.605 53.02 15.5139 52.963 15.4322C52.9057 15.35 52.8528 15.2853 52.7978 15.2113C52.7429 15.1373 52.6806 15.0502 52.6168 14.9734C52.5529 14.8965 52.4931 14.8363 52.4308 14.7732C52.369 14.7106 52.2998 14.6256 52.231 14.5556C52.1618 14.4857 52.0939 14.4303 52.0251 14.3685C51.956 14.3067 51.8819 14.2335 51.8058 14.1684C51.7301 14.1037 51.6528 14.0537 51.5771 13.9968C51.501 13.9398 51.425 13.8788 51.3452 13.8255C51.265 13.7726 51.1751 13.7259 51.0893 13.6697C51.003 13.6136 50.933 13.5697 50.852 13.527C50.7711 13.4838 50.6702 13.4387 50.5782 13.3948C50.4862 13.3508 50.4142 13.3118 50.3292 13.276C50.2441 13.2398 50.129 13.202 50.0293 13.1662C49.9292 13.13 49.8641 13.1019 49.779 13.0751C49.6651 13.0401 49.5483 13.0149 49.4319 12.986C49.3559 12.9681 49.283 12.9441 49.2061 12.9282C49.0832 12.903 48.9571 12.8892 48.8322 12.8709C48.7581 12.8611 48.6873 12.8448 48.6133 12.8379C48.4131 12.818 48.2133 12.807 48.0033 12.807C44.6907 12.8103 42.0064 15.4936 42.0032 18.8049H34.0002V8.80949H45C45.2653 8.80949 45.5196 8.70415 45.7068 8.51664L48.3 5.92443C49.3884 6.44222 50.4468 7.02102 51.4701 7.65799C51.5881 7.73161 51.72 7.78001 51.8579 7.79994L58.0001 8.67649V9.80928Z" fill="#332208"/>
</svg>
