<svg width="30" height="31" viewBox="0 0 30 31" fill="none" xmlns="http://www.w3.org/2000/svg">
<path d="M30 15.0109C30 6.72807 23.2852 0.0151367 15 0.0151367C6.71484 0.0151367 0 6.72807 0 15.0109C0 23.2937 6.71484 30.0066 15 30.0066C15.0879 30.0066 15.1758 30.0066 15.2637 30.0007V18.3322H12.041V14.5774H15.2637V11.8126C15.2637 8.60839 17.2207 6.8628 20.0801 6.8628C21.4512 6.8628 22.6289 6.96238 22.9688 7.00924V10.3598H21C19.4473 10.3598 19.1426 11.0979 19.1426 12.1816V14.5715H22.8633L22.377 18.3263H19.1426V29.4267C25.4121 27.6284 30 21.8585 30 15.0109Z" fill="#C5AC2D"/>
</svg>
