<svg width="30" height="31" viewBox="0 0 30 31" fill="none" xmlns="http://www.w3.org/2000/svg">
<path d="M17.8711 15.0109C17.8711 16.5961 16.5857 17.8811 15 17.8811C13.4143 17.8811 12.1289 16.5961 12.1289 15.0109C12.1289 13.4256 13.4143 12.1406 15 12.1406C16.5857 12.1406 17.8711 13.4256 17.8711 15.0109Z" fill="#C5AC2D"/>
<path d="M21.7144 9.93256C21.5764 9.55866 21.3562 9.22024 21.0701 8.94245C20.7922 8.65643 20.454 8.4363 20.0797 8.29832C19.7762 8.18048 19.3203 8.04021 18.4805 8.002C17.5721 7.96058 17.2997 7.95166 14.9999 7.95166C12.6999 7.95166 12.4275 7.96036 11.5193 8.00177C10.6796 8.04021 10.2234 8.18048 9.92013 8.29832C9.54591 8.4363 9.2074 8.65643 8.92976 8.94245C8.64366 9.22024 8.42348 9.55844 8.28523 9.93256C8.16736 10.236 8.02705 10.692 7.98883 11.5316C7.9474 12.4395 7.93848 12.7118 7.93848 15.0112C7.93848 17.3104 7.9474 17.5827 7.98883 18.4909C8.02705 19.3304 8.16736 19.7862 8.28523 20.0897C8.42348 20.4638 8.64343 20.802 8.92953 21.0798C9.2074 21.3658 9.54568 21.5859 9.9199 21.7239C10.2234 21.842 10.6796 21.9822 11.5193 22.0204C12.4275 22.0619 12.6997 22.0706 14.9997 22.0706C17.3 22.0706 17.5723 22.0619 18.4803 22.0204C19.3201 21.9822 19.7762 21.842 20.0797 21.7239C20.8309 21.4342 21.4246 20.8406 21.7144 20.0897C21.8323 19.7862 21.9726 19.3304 22.011 18.4909C22.0525 17.5827 22.0612 17.3104 22.0612 15.0112C22.0612 12.7118 22.0525 12.4395 22.011 11.5316C21.9728 10.692 21.8325 10.236 21.7144 9.93256ZM14.9999 19.4327C12.5571 19.4327 10.5768 17.4532 10.5768 15.011C10.5768 12.5688 12.5571 10.5893 14.9999 10.5893C17.4426 10.5893 19.4228 12.5688 19.4228 15.011C19.4228 17.4532 17.4426 19.4327 14.9999 19.4327ZM19.5977 11.4478C19.0269 11.4478 18.5641 10.9851 18.5641 10.4145C18.5641 9.84377 19.0269 9.3811 19.5977 9.3811C20.1685 9.3811 20.6313 9.84377 20.6313 10.4145C20.6311 10.9851 20.1685 11.4478 19.5977 11.4478Z" fill="#C5AC2D"/>
<path d="M15 0.0151367C6.717 0.0151367 0 6.73022 0 15.0109C0 23.2915 6.717 30.0066 15 30.0066C23.283 30.0066 30 23.2915 30 15.0109C30 6.73022 23.283 0.0151367 15 0.0151367ZM23.5613 18.561C23.5197 19.4776 23.3739 20.1034 23.161 20.6512C22.7135 21.8079 21.7989 22.7222 20.6419 23.1695C20.0942 23.3823 19.468 23.5279 18.5513 23.5698C17.6328 23.6116 17.3394 23.6217 15.0002 23.6217C12.6608 23.6217 12.3676 23.6116 11.4489 23.5698C10.5322 23.5279 9.90601 23.3823 9.35829 23.1695C8.78334 22.9533 8.26286 22.6144 7.83257 22.1763C7.39449 21.7463 7.05551 21.2258 6.83922 20.6512C6.62636 20.1036 6.48056 19.4776 6.4389 18.5612C6.39656 17.6427 6.38672 17.3494 6.38672 15.0109C6.38672 12.6724 6.39656 12.379 6.43867 11.4608C6.48033 10.5441 6.6259 9.91832 6.83876 9.37053C7.05505 8.79598 7.39426 8.27542 7.83257 7.84547C8.26263 7.40729 8.78334 7.06841 9.35806 6.85218C9.90601 6.63938 10.532 6.49385 11.4489 6.45198C12.3674 6.4101 12.6608 6.40004 15 6.40004C17.3392 6.40004 17.6326 6.4101 18.5511 6.45221C19.468 6.49385 20.094 6.63938 20.6419 6.85195C21.2167 7.06818 21.7374 7.40729 22.1677 7.84547C22.6057 8.27565 22.9449 8.79598 23.161 9.37053C23.3741 9.91832 23.5197 10.5441 23.5616 11.4608C23.6034 12.379 23.6133 12.6724 23.6133 15.0109C23.6133 17.3494 23.6034 17.6427 23.5613 18.561Z" fill="#C5AC2D"/>
</svg>
