<svg width="30" height="31" viewBox="0 0 30 31" fill="none" xmlns="http://www.w3.org/2000/svg">
<path d="M13.1316 17.8203L18.0109 15.0109L13.1316 12.2014V17.8203Z" fill="#C5AC2D"/>
<path d="M15 0.0151367C6.717 0.0151367 0 6.73022 0 15.0109C0 23.2915 6.717 30.0066 15 30.0066C23.283 30.0066 30 23.2915 30 15.0109C30 6.73022 23.283 0.0151367 15 0.0151367ZM24.3727 15.0262C24.3727 15.0262 24.3727 18.0674 23.9868 19.5339C23.7705 20.3366 23.1374 20.9695 22.3345 21.1855C20.8676 21.5715 15 21.5715 15 21.5715C15 21.5715 9.14772 21.5715 7.66548 21.1702C6.86256 20.9541 6.22948 20.321 6.01318 19.5183C5.62706 18.0674 5.62706 15.0109 5.62706 15.0109C5.62706 15.0109 5.62706 11.9699 6.01318 10.5034C6.22925 9.70072 6.8779 9.05225 7.66548 8.83625C9.13239 8.45023 15 8.45023 15 8.45023C15 8.45023 20.8676 8.45023 22.3345 8.85158C23.1374 9.06758 23.7705 9.70072 23.9868 10.5034C24.3883 11.9699 24.3727 15.0262 24.3727 15.0262Z" fill="#C5AC2D"/>
</svg>
